<svg width="36" height="36" viewBox="0 0 36 36" fill="none" xmlns="http://www.w3.org/2000/svg">
<path fill-rule="evenodd" clip-rule="evenodd" d="M26.4898 8.94016C26.0995 8.54982 25.4657 8.55072 25.0743 8.94215L8.94556 25.0709C8.55409 25.4623 8.55323 26.0961 8.94356 26.4864C9.33392 26.8768 9.96764 26.8759 10.3591 26.4844L26.4878 10.3557C26.8793 9.96428 26.8802 9.33052 26.4898 8.94016Z" fill="white" stroke="white" stroke-width="3"/>
<path fill-rule="evenodd" clip-rule="evenodd" d="M26.4878 25.0709L10.3591 8.94216C9.96762 8.55073 9.33225 8.55142 8.93997 8.9437C8.54765 9.33602 8.547 9.97135 8.93843 10.3628L25.0672 26.4915C25.4586 26.883 26.0939 26.8823 26.4862 26.49C26.8785 26.0977 26.8793 25.4624 26.4878 25.0709Z" fill="white" stroke="white" stroke-width="3"/>
</svg>
